<svg width="64" height="64" viewBox="0 0 64 64" fill="none" xmlns="http://www.w3.org/2000/svg">
<path fill-rule="evenodd" clip-rule="evenodd" d="M50.2372 54.7368H22.4561V54.7309C22.3629 54.7349 22.2693 54.7368 22.1754 54.7368C16.7495 54.7368 12.3509 48.1389 12.3509 40C12.3509 31.9553 16.6482 25.4161 21.9874 25.2658C21.9262 24.4355 21.8947 23.5917 21.8947 22.7368C21.8947 10.1796 28.6812 0 37.0526 0C43.2309 0 48.5458 5.5444 50.9066 13.4971C58.196 14.0144 64 23.0432 64 34.1053C64 45.3591 57.9931 54.5084 50.5263 54.7326V54.7368H50.2541C50.2512 54.7368 50.2484 54.7368 50.2456 54.7368C50.2428 54.7368 50.24 54.7368 50.2372 54.7368Z" fill="#F2F2F2"/>
<path fill-rule="evenodd" clip-rule="evenodd" d="M37.8863 64H10.1053V63.9941C10.012 63.998 9.91844 64 9.82456 64C4.39861 64 0 57.4021 0 49.2632C0 41.2184 4.29737 34.6793 9.63657 34.529C9.57531 33.6986 9.54386 32.8548 9.54386 32C9.54386 19.4428 16.3303 9.26315 24.7018 9.26315C30.88 9.26315 36.1949 14.8076 38.5557 22.7602C45.8451 23.2776 51.6491 32.3063 51.6491 43.3684C51.6491 54.6222 45.6422 63.7716 38.1754 63.9958V64H37.9032C37.9004 64 37.8976 64 37.8947 64C37.8919 64 37.8891 64 37.8863 64Z" fill="white"/>
</svg>
