<svg width="64" height="64" viewBox="0 0 64 64" fill="none" xmlns="http://www.w3.org/2000/svg">
<path d="M31.6471 21.1429L39.3013 25.5714V34.4286L31.6471 38.8571L23.9928 34.4286V25.5714L31.6471 21.1429Z" fill="#F2F2F2"/>
<rect x="30.2215" width="3.42131" height="32" fill="#F2F2F2"/>
<path d="M36.779 1.71428L39.742 3.42856L33.1845 14.8106L30.2215 13.0963L36.779 1.71428Z" fill="#F2F2F2"/>
<rect width="3.42313" height="13.1359" transform="matrix(0.865566 -0.500795 0.499205 0.866484 23.9491 3.45183)" fill="#F2F2F2"/>
<path d="M32.044 42.8571L24.3897 38.4286V29.5714L32.044 25.1429L39.6982 29.5714V38.4286L32.044 42.8571Z" fill="#F2F2F2"/>
<rect x="33.4695" y="64" width="3.42131" height="32" transform="rotate(-180 33.4695 64)" fill="#F2F2F2"/>
<path d="M26.912 62.2857L23.949 60.5714L30.5066 49.1894L33.4695 50.9037L26.912 62.2857Z" fill="#F2F2F2"/>
<rect width="3.42313" height="13.1359" transform="matrix(-0.865566 0.500795 -0.499205 -0.866484 39.7419 60.5482)" fill="#F2F2F2"/>
<path d="M22.6906 27.2344L30.3449 22.8059L37.9991 27.2345L37.9991 36.0916L30.3449 40.5202L22.6906 36.0916L22.6906 27.2344Z" fill="#F2F2F2"/>
<rect width="3.42676" height="31.9492" transform="matrix(0.499205 -0.866484 0.865566 0.500795 3.70634 17.9002)" fill="#F2F2F2"/>
<path d="M8.46655 13.0663L11.4295 11.352L17.987 22.7341L15.0241 24.4484L8.46655 13.0663Z" fill="#F2F2F2"/>
<rect x="3.55318" y="25.0697" width="3.42313" height="13.1359" transform="rotate(-90 3.55318 25.0697)" fill="#F2F2F2"/>
<path d="M41.3959 26.3951L41.3959 35.2522L33.7417 39.6808L26.0874 35.2522L26.0874 26.3951L33.7417 21.9665L41.3959 26.3951Z" fill="#F2F2F2"/>
<rect width="3.42676" height="31.9492" transform="matrix(0.499205 0.866484 -0.865566 0.500795 58.9546 14.5864)" fill="#F2F2F2"/>
<path d="M60.7519 21.1346L60.7519 24.5632L47.6369 24.5632L47.6369 21.1346L60.7519 21.1346Z" fill="#F2F2F2"/>
<rect width="3.42585" height="13.1255" transform="matrix(0.864878 0.500397 -0.499602 0.867173 52.8354 10.8688)" fill="#F2F2F2"/>
<path d="M41.3094 37.2522L33.6551 41.6808L26.0008 37.2522L26.0008 28.395L33.6551 23.9665L41.3094 28.395L41.3094 37.2522Z" fill="#F2F2F2"/>
<rect width="3.42676" height="31.9492" transform="matrix(-0.499205 0.866484 -0.865566 -0.500795 60.2936 46.5864)" fill="#F2F2F2"/>
<path d="M55.5334 51.4203L52.5704 53.1346L46.0129 41.7526L48.9759 40.0383L55.5334 51.4203Z" fill="#F2F2F2"/>
<rect x="60.4468" y="39.4169" width="3.42313" height="13.1359" transform="rotate(90 60.4468 39.4169)" fill="#F2F2F2"/>
<path d="M22.604 37.5202L22.604 28.663L30.2583 24.2344L37.9126 28.663L37.9126 37.5202L30.2583 41.9487L22.604 37.5202Z" fill="#F2F2F2"/>
<rect width="3.42676" height="31.9492" transform="matrix(-0.499205 -0.866484 0.865566 -0.500795 5.04532 49.3288)" fill="#F2F2F2"/>
<path d="M3.248 42.7806L3.248 39.352L16.363 39.352L16.363 42.7806L3.248 42.7806Z" fill="#F2F2F2"/>
<rect width="3.42585" height="13.1255" transform="matrix(-0.864878 -0.500397 0.499602 -0.867173 11.1646 53.0464)" fill="#F2F2F2"/>
</svg>
